<svg width="1142" height="768" viewBox="0 0 1142 768" fill="none" xmlns="http://www.w3.org/2000/svg">
<g filter="url(#filter0_f_7_149)">
<circle opacity="0.3" cx="1031" cy="7" r="3" fill="white"/>
<circle opacity="0.3" cx="774" cy="420" r="3" fill="white"/>
<circle opacity="0.3" cx="1070" cy="511" r="3" fill="white"/>
<circle opacity="0.3" cx="979" cy="457" r="3" fill="white"/>
<circle opacity="0.3" cx="1135" cy="742" r="3" fill="white"/>
<circle opacity="0.3" cx="953" cy="605" r="3" fill="white"/>
<circle opacity="0.3" cx="383" cy="720" r="3" fill="white"/>
<circle opacity="0.3" cx="1076" cy="294" r="3" fill="white"/>
<circle opacity="0.3" cx="885" cy="673" r="3" fill="white"/>
<circle opacity="0.3" cx="909" cy="294" r="3" fill="white"/>
<circle opacity="0.3" cx="718" cy="673" r="3" fill="white"/>
<circle opacity="0.3" cx="929" cy="36" r="3" fill="white"/>
<circle opacity="0.3" cx="662" cy="552" r="3" fill="white"/>
<circle opacity="0.3" cx="955" cy="146" r="3" fill="white"/>
<circle opacity="0.3" cx="815" cy="580" r="3" fill="white"/>
<circle opacity="0.3" r="1.5" transform="matrix(-1.19249e-08 1 1 1.19249e-08 487.5 343.5)" fill="white"/>
<circle opacity="0.3" r="1.5" transform="matrix(-1.19249e-08 1 1 1.19249e-08 202.5 162.5)" fill="white"/>
<circle opacity="0.3" r="2.90227" transform="matrix(0.376454 0.926435 0.926435 -0.376454 7.18087 698.811)" fill="white"/>
<circle opacity="0.3" r="1.5" transform="matrix(-1.19249e-08 1 1 1.19249e-08 723.5 178.5)" fill="white"/>
<circle opacity="0.3" r="1.5" transform="matrix(-1.19249e-08 1 1 1.19249e-08 159.5 585.5)" fill="white"/>
<circle opacity="0.3" r="2.90227" transform="matrix(0.376454 0.926435 0.926435 -0.376454 274.977 391.587)" fill="white"/>
<ellipse opacity="0.3" rx="1.5" ry="1" transform="matrix(-1.19249e-08 1 1 1.19249e-08 800 308.5)" fill="white"/>
<ellipse opacity="0.3" rx="1.5" ry="1" transform="matrix(-1.19249e-08 1 1 1.19249e-08 236 715.5)" fill="white"/>
<ellipse opacity="0.3" rx="2.90227" ry="1.93485" transform="matrix(0.376454 0.926435 0.926435 -0.376454 506.794 568.892)" fill="white"/>
<circle opacity="0.3" r="1.5" transform="matrix(-1.19249e-08 1 1 1.19249e-08 828.5 213.5)" fill="white"/>
<circle opacity="0.3" r="1.5" transform="matrix(-1.19249e-08 1 1 1.19249e-08 172.5 298.5)" fill="white"/>
<circle opacity="0.3" r="2.90227" transform="matrix(0.376454 0.926435 0.926435 -0.376454 408.781 410.781)" fill="white"/>
<circle opacity="0.3" r="1.5" transform="matrix(-1.19249e-08 1 1 1.19249e-08 678.5 295.5)" fill="white"/>
<circle opacity="0.3" r="1.5" transform="matrix(-1.19249e-08 1 1 1.19249e-08 114.5 702.5)" fill="white"/>
<circle opacity="0.3" r="2.90227" transform="matrix(0.376454 0.926435 0.926435 -0.376454 279.535 634.088)" fill="white"/>
<circle opacity="0.3" r="1.5" transform="matrix(-1.19249e-08 1 1 1.19249e-08 1001.5 355.5)" fill="white"/>
<circle opacity="0.3" r="1.5" transform="matrix(-1.19249e-08 1 1 1.19249e-08 437.5 762.5)" fill="white"/>
<circle opacity="0.3" r="2.90227" transform="matrix(0.376454 0.926435 0.926435 -0.376454 902.219 506.371)" fill="white"/>
<circle opacity="0.3" r="1.5" transform="matrix(-1.19249e-08 1 1 1.19249e-08 678.5 212.5)" fill="white"/>
<circle opacity="0.3" r="1.5" transform="matrix(-1.19249e-08 1 1 1.19249e-08 88.5 416.5)" fill="white"/>
<circle opacity="0.3" r="2.90227" transform="matrix(0.376454 0.926435 0.926435 -0.376454 219.079 485.309)" fill="white"/>
<circle opacity="0.3" r="1.5" transform="matrix(-1.19249e-08 1 1 1.19249e-08 866.5 117.5)" fill="white"/>
<circle opacity="0.3" r="1.5" transform="matrix(-1.19249e-08 1 1 1.19249e-08 328.5 532.5)" fill="white"/>
<circle opacity="0.3" r="2.90227" transform="matrix(0.376454 0.926435 0.926435 -0.376454 486.875 178.085)" fill="white"/>
<circle opacity="0.3" r="1.5" transform="matrix(-1.19249e-08 1 1 1.19249e-08 588.5 209.5)" fill="white"/>
<circle opacity="0.3" r="1.5" transform="matrix(-1.19249e-08 1 1 1.19249e-08 24.5 616.5)" fill="white"/>
<circle opacity="0.3" r="2.90227" transform="matrix(0.376454 0.926435 0.926435 -0.376454 28.7813 193.781)" fill="white"/>
<circle opacity="0.3" r="1.5" transform="matrix(-1.19249e-08 1 1 1.19249e-08 776.5 114.5)" fill="white"/>
<circle opacity="0.3" r="1.5" transform="matrix(-1.19249e-08 1 1 1.19249e-08 202.5 340.5)" fill="white"/>
<circle opacity="0.3" r="2.90227" transform="matrix(0.376454 0.926435 0.926435 -0.376454 323.364 238.262)" fill="white"/>
<circle opacity="0.3" r="1.5" transform="matrix(-1.19249e-08 1 1 1.19249e-08 631.5 260.5)" fill="white"/>
<circle opacity="0.3" r="1.5" transform="matrix(-1.19249e-08 1 1 1.19249e-08 12.5 381.5)" fill="white"/>
<circle opacity="0.3" r="2.90227" transform="matrix(0.376454 0.926435 0.926435 -0.376454 169.793 605.584)" fill="white"/>
<circle opacity="0.3" r="1.5" transform="matrix(-1.19249e-08 1 1 1.19249e-08 1046.5 111.5)" fill="white"/>
<circle opacity="0.3" r="1.5" transform="matrix(-1.19249e-08 1 1 1.19249e-08 560.5 419.5)" fill="white"/>
<circle opacity="0.3" r="2.90227" transform="matrix(0.376454 0.926435 0.926435 -0.376454 805.157 36.2214)" fill="white"/>
</g>
<defs>
<filter id="filter0_f_7_149" x="0.277832" y="0" width="1141.72" height="768" filterUnits="userSpaceOnUse" color-interpolation-filters="sRGB">
<feFlood flood-opacity="0" result="BackgroundImageFix"/>
<feBlend mode="normal" in="SourceGraphic" in2="BackgroundImageFix" result="shape"/>
<feGaussianBlur stdDeviation="2" result="effect1_foregroundBlur_7_149"/>
</filter>
</defs>
</svg>
